<svg width="32" height="32" viewBox="0 0 32 32" fill="none" xmlns="http://www.w3.org/2000/svg">
<path d="M27.6625 1.45C29.2342 1.45 30.55 2.72954 30.55 4.3375V27.6625C30.55 29.2342 29.2705 30.55 27.6625 30.55H4.3375C2.7658 30.55 1.45 29.2705 1.45 27.6625V4.3375C1.45 2.7658 2.72954 1.45 4.3375 1.45H27.6625ZM27.6625 0.925H4.3375C2.45858 0.925 0.925 2.45858 0.925 4.3375V27.6625C0.925 29.5414 2.45858 31.075 4.3375 31.075H27.6625C29.5414 31.075 31.075 29.5414 31.075 27.6625V4.3375C31.075 2.45858 29.5414 0.925 27.6625 0.925Z" fill="#F2F2F2" stroke="white" stroke-width="0.15"/>
<path d="M17.95 7.75V7.675H17.875H14.5H14.425V7.75V24.25V24.325H14.5H17.875H17.95V24.25V7.75ZM11.2 12.625V12.55H11.125H7.75H7.675V12.625V24.25V24.325H7.75H11.125H11.2V24.25V12.625ZM24.325 17.5V17.425H24.25H20.875H20.8V17.5V24.25V24.325H20.875H24.25H24.325V24.25V17.5ZM17.425 8.2V23.8H14.95V8.2H17.425ZM10.675 13.075V23.8H8.2V13.075H10.675ZM23.8 17.95V23.8H21.325V17.95H23.8Z" fill="#F2F2F2" stroke="white" stroke-width="0.15"/>
</svg>
