<svg width="35" height="31" viewBox="0 0 35 31" fill="none" xmlns="http://www.w3.org/2000/svg">
<path d="M4.375 30.1977V23.3333H2.1875C0.981458 23.3333 0 22.3519 0 21.1458V2.1875C0 0.981458 0.981458 0 2.1875 0H32.8125C34.0185 0 35 0.981458 35 2.1875V21.1458C35 22.3519 34.0185 23.3333 32.8125 23.3333H11.2394L4.375 30.1977ZM2.1875 1.45833C1.785 1.45833 1.45833 1.785 1.45833 2.1875V21.1458C1.45833 21.5483 1.785 21.875 2.1875 21.875H5.83333V26.6773L10.6356 21.875H32.8125C33.215 21.875 33.5417 21.5483 33.5417 21.1458V2.1875C33.5417 1.785 33.215 1.45833 32.8125 1.45833H2.1875Z" fill="#A7A7A7"/>
<path d="M11.6659 13.1252C12.4713 13.1252 13.1242 12.4722 13.1242 11.6668C13.1242 10.8614 12.4713 10.2085 11.6659 10.2085C10.8604 10.2085 10.2075 10.8614 10.2075 11.6668C10.2075 12.4722 10.8604 13.1252 11.6659 13.1252Z" fill="#A7A7A7"/>
<path d="M23.3333 13.1252C24.1387 13.1252 24.7917 12.4722 24.7917 11.6668C24.7917 10.8614 24.1387 10.2085 23.3333 10.2085C22.5279 10.2085 21.875 10.8614 21.875 11.6668C21.875 12.4722 22.5279 13.1252 23.3333 13.1252Z" fill="#A7A7A7"/>
<path d="M17.5008 13.1252C18.3062 13.1252 18.9591 12.4722 18.9591 11.6668C18.9591 10.8614 18.3062 10.2085 17.5008 10.2085C16.6954 10.2085 16.0425 10.8614 16.0425 11.6668C16.0425 12.4722 16.6954 13.1252 17.5008 13.1252Z" fill="#A7A7A7"/>
</svg>
