<svg width="24" height="24" viewBox="0 0 24 24" fill="none" xmlns="http://www.w3.org/2000/svg">
<path d="M23.5553 10.0191L24 8.82518L22.7306 5.76122L21.572 5.23249L20.2307 5.67959L19.8956 5.57482C19.4595 5.03878 18.9661 4.5466 18.4264 4.10802L18.3216 3.77056L18.7687 2.42802L18.24 1.26944L15.176 0L13.9834 0.445888L13.3498 1.71168L13.038 1.87492C12.346 1.80305 11.6491 1.80183 10.962 1.87249L10.6502 1.71046L10.0179 0.447106L8.82518 0L5.76 1.26944L5.23127 2.42802L5.67838 3.76812L5.57239 4.10437C5.03635 4.54051 4.54294 5.03391 4.10558 5.5736L3.76934 5.67838L2.42802 5.23127L1.26944 5.76L0 8.82518L0.44467 10.0191L1.71046 10.6526L1.87371 10.9645C1.80183 11.6552 1.80183 12.3521 1.87127 13.0404L1.70924 13.3523L0.445888 13.9846L0.00121819 15.1785L1.27066 18.2424L2.42924 18.7712L3.76934 18.3253L4.10437 18.4301C4.54051 18.9661 5.03391 19.4583 5.5736 19.8969L5.67838 20.2319L5.23127 21.5744L5.76122 22.733L8.82518 24.0024L10.0191 23.5565L10.6514 22.292L10.9632 22.1287C11.6552 22.2006 12.3521 22.2006 13.0404 22.1299L13.3511 22.2932L13.9834 23.5565L15.176 24.0012L18.24 22.7318L18.7687 21.5732L18.3228 20.2331L18.4276 19.8981C18.9649 19.4607 19.4571 18.9673 19.8944 18.4288L20.2294 18.3241L21.572 18.7712L22.7306 18.2424L24 15.1773L23.5553 13.9834L22.2895 13.3498L22.1263 13.0392C22.1982 12.3484 22.1982 11.6516 22.1287 10.962L22.2908 10.6502L23.5553 10.0191ZM21.4611 9.80589L20.9702 10.7464L20.9909 10.9194C21.0761 11.6333 21.0761 12.3594 20.9884 13.077L20.9677 13.2512L21.4599 14.1929L22.6538 14.7898L22.789 15.1529L21.8583 17.3982L21.5062 17.559L20.2392 17.1375L19.2256 17.4554L19.1172 17.5931C18.6725 18.162 18.1584 18.6761 17.5931 19.1208L17.4554 19.228L17.1375 20.2416L17.559 21.5074L17.3982 21.8595L15.1529 22.7903L14.7898 22.655L14.1929 21.4623L13.2524 20.9702L13.0794 20.9909C12.3667 21.0761 11.6406 21.0761 10.9206 20.9884L10.7476 20.9677L9.80589 21.4599L9.20893 22.655L8.84589 22.7903L6.60061 21.8607L6.4398 21.5086L6.86132 20.2416L6.54335 19.228L6.40568 19.1196C5.83553 18.6725 5.32142 18.1596 4.87797 17.5943L4.77076 17.4566L3.75838 17.1387L2.49259 17.5614L2.14051 17.4006L1.20975 15.1553L1.34497 14.7923L2.37563 14.2757L2.55959 14.1527L3.02985 13.2536L3.00914 13.0806C2.92386 12.3667 2.92386 11.6406 3.01157 10.923L3.03228 10.7488L2.5401 9.80711L1.34619 9.21015L1.20975 8.84711L2.14051 6.60183L2.49259 6.44101L3.75959 6.86254L4.7732 6.54457L4.88162 6.4069C5.32751 5.83675 5.84041 5.32386 6.40568 4.87919L6.54335 4.77076L6.8601 3.75716L6.4398 2.49381L6.60061 2.14173L8.84589 1.21096L9.20893 1.34619L9.80589 2.53888L10.7464 3.03107L10.9194 3.01035C11.6333 2.92508 12.3594 2.92508 13.077 3.01279L13.2512 3.0335L14.1929 2.5401L14.7911 1.34497L15.1541 1.20975L17.3994 2.14051L17.5602 2.49259L17.1387 3.75959L17.4554 4.7732L17.5931 4.88162C18.162 5.32751 18.6761 5.84041 19.1208 6.4069L19.228 6.54457L20.2416 6.86254L21.5074 6.44101L21.8595 6.60183L22.7903 8.84711L22.655 9.21015L21.4611 9.80589Z" fill="white"/>
<path d="M11.9906 5.75342C8.57454 5.75342 5.79565 8.52743 5.79565 11.9386C5.79565 15.3498 8.57454 18.1238 11.9906 18.1238C15.4066 18.1238 18.1855 15.3498 18.1855 11.9386C18.1855 8.52743 15.4066 5.75342 11.9906 5.75342ZM11.9906 16.9981C9.19586 16.9981 6.92256 14.7284 6.92256 11.9386C6.92256 9.14875 9.19586 6.8791 11.9906 6.8791C14.7853 6.8791 17.0586 9.14875 17.0586 11.9386C17.0586 14.7284 14.7853 16.9981 11.9906 16.9981Z" fill="white"/>
</svg>
