<svg width="36" height="35" viewBox="0 0 36 35" fill="none" xmlns="http://www.w3.org/2000/svg">
<path d="M21.691 15.8627V13.958C21.6746 13.9725 21.6579 13.987 21.641 14.0014M21.691 15.8627L15.914 18.3901C12.5079 18.3901 10.137 17.0584 10.137 15.8635V13.9579C10.1535 13.9725 10.1701 13.9869 10.187 14.0013M21.691 15.8627C21.6948 17.0576 19.3217 18.3894 15.9163 18.3894L21.691 15.8627ZM21.641 14.0014V13.9353C20.4984 14.9329 18.3859 15.5906 15.914 15.5906C13.442 15.5906 11.3311 14.9328 10.187 13.9353V14.0013M21.641 14.0014V15.8627V15.8628C21.6419 16.1445 21.5027 16.4401 21.2328 16.7274C20.9631 17.0144 20.5661 17.2896 20.0607 17.5289C19.0501 18.0075 17.613 18.3394 15.9163 18.3394H15.9082L15.9059 18.3401C14.2124 18.3391 12.7787 18.0075 11.7696 17.5297C11.2642 17.2904 10.8671 17.0152 10.5971 16.7281C10.3269 16.4408 10.187 16.1452 10.187 15.8635V14.0013M21.641 14.0014C20.4785 14.994 18.3689 15.6406 15.914 15.6406C13.459 15.6406 11.3508 14.9939 10.187 14.0013M10.187 21.329C11.3508 22.3216 13.459 22.9675 15.914 22.9675C18.3689 22.9675 20.4785 22.3216 21.641 21.3291V23.1904V23.1905C21.6419 23.4722 21.5027 23.7678 21.2328 24.055C20.9631 24.3421 20.5661 24.6173 20.0607 24.8566C19.0501 25.3352 17.613 25.6671 15.9163 25.6671H15.9082L15.9059 25.6678C14.2124 25.6668 12.7787 25.3352 11.7696 24.8574C11.2642 24.618 10.8671 24.3429 10.5971 24.0558C10.3269 23.7685 10.187 23.4728 10.187 23.1911V21.329ZM15.9139 9.72216L15.914 9.72292C17.6107 9.72292 19.0474 10.0548 20.0582 10.5334C20.5636 10.7727 20.9608 11.0479 21.2308 11.335C21.5011 11.6223 21.641 11.9179 21.641 12.1996C21.641 12.4813 21.5011 12.7769 21.2306 13.0642C20.9604 13.3513 20.5632 13.6265 20.0576 13.8659C19.0466 14.3445 17.6099 14.6763 15.914 14.6763C14.2181 14.6763 12.7814 14.3445 11.7705 13.8659C11.2649 13.6265 10.8676 13.3513 10.5974 13.0642C10.327 12.7769 10.187 12.4813 10.187 12.1996C10.187 11.9179 10.327 11.6222 10.5974 11.3348C10.8677 11.0477 11.265 10.7724 11.7707 10.533C12.7815 10.0544 14.2179 9.72248 15.9139 9.72216ZM9.22197 12.1981V23.1896C9.22197 24.1679 9.97241 25.0288 11.1741 25.6423C12.378 26.2568 14.0472 26.6306 15.9163 26.6306C17.7854 26.6306 19.4544 26.257 20.6581 25.6425C21.8596 25.0292 22.6099 24.1683 22.6099 23.1896V12.1981C22.6099 11.2198 21.8594 10.3589 20.6579 9.74545C19.4541 9.13087 17.785 8.75713 15.9163 8.75713C14.0476 8.75713 12.3784 9.13087 11.1744 9.74545C9.97261 10.3589 9.22197 11.2198 9.22197 12.1981ZM10.187 17.6644C11.3508 18.6569 13.459 19.3029 15.914 19.3029C18.3689 19.3029 20.4785 18.657 21.641 17.6645V19.5258C21.641 19.8075 21.5011 20.1031 21.2306 20.3904C20.9604 20.6775 20.5632 20.9527 20.0576 21.192C19.0466 21.6706 17.6099 22.0025 15.914 22.0025C14.2181 22.0025 12.7814 21.6706 11.7705 21.192C11.2649 20.9527 10.8676 20.6775 10.5974 20.3904C10.327 20.1031 10.187 19.8075 10.187 19.5258V17.6644Z" fill="#BFD2E6" stroke="#BFD2E6" stroke-width="0.1"/>
<path d="M25.0919 28.3143L25.0154 28.381C22.65 30.3667 19.6947 31.5175 16.6074 31.6531C13.5381 31.788 10.5108 30.9121 7.98916 29.1621H11.4963C11.6243 29.1621 11.747 29.1113 11.8375 29.0208C11.928 28.9303 11.9789 28.8075 11.9789 28.6796C11.9789 28.5516 11.928 28.4289 11.8375 28.3384C11.747 28.2479 11.6243 28.1971 11.4963 28.1971H6.56991V28.1965L6.56236 28.1976C6.55606 28.1986 6.54982 28.1999 6.54365 28.2014C6.51341 28.2043 6.48355 28.2104 6.45461 28.2197C6.42625 28.2246 6.3985 28.2325 6.3718 28.2433L6.3717 28.243L6.367 28.2455C6.34317 28.2582 6.32063 28.2732 6.29966 28.2902C6.26985 28.3076 6.24223 28.3285 6.21741 28.3525L6.21713 28.3528C6.21665 28.3531 6.21617 28.3534 6.21571 28.3537C6.21261 28.3556 6.20606 28.3599 6.20008 28.3671L6.19985 28.3669L6.19681 28.3715C6.18486 28.3895 6.1743 28.4085 6.16525 28.4281C6.14759 28.4535 6.13237 28.4805 6.11982 28.5088L6.11951 28.5086L6.11776 28.5143C6.10807 28.5456 6.10144 28.5777 6.09797 28.6103C6.09253 28.6304 6.0886 28.6509 6.08621 28.6715L6.08588 28.6715V28.6773V33.6019C6.08331 33.6666 6.09377 33.7311 6.11664 33.7916C6.13964 33.8525 6.17471 33.9081 6.21975 33.9551C6.26478 34.002 6.31885 34.0394 6.3787 34.0649C6.43855 34.0904 6.50295 34.1036 6.56801 34.1036C6.63308 34.1036 6.69748 34.0904 6.75733 34.0649C6.81718 34.0394 6.87125 34.002 6.91628 33.9551C6.96132 33.9081 6.99639 33.8525 7.01939 33.7916C7.04226 33.7311 7.05272 33.6666 7.05015 33.6019V29.6644C9.7562 31.6819 13.0656 32.7264 16.4415 32.6264C19.8506 32.5254 23.123 31.2634 25.7172 29.0493C25.7662 29.0085 25.8067 28.9585 25.8363 28.902C25.8659 28.8455 25.884 28.7836 25.8895 28.72C25.8951 28.6564 25.8879 28.5923 25.8685 28.5315C25.8491 28.4706 25.8178 28.4143 25.7765 28.3656C25.7351 28.317 25.6845 28.277 25.6276 28.2481C25.5707 28.2191 25.5086 28.2017 25.4449 28.197C25.3813 28.1922 25.3173 28.2001 25.2567 28.2202C25.1961 28.2404 25.1401 28.2723 25.0919 28.3143Z" fill="#BFD2E6" stroke="#BFD2E6" stroke-width="0.1"/>
<path d="M11.5224 4.12554L11.5157 4.13714L9.05283 8.40301C9.01047 8.47638 8.94951 8.53729 8.87609 8.57958C8.80268 8.62187 8.71941 8.64405 8.63469 8.64389M11.5224 4.12554L8.63478 8.59389M11.5224 4.12554V4.11933C11.5386 4.08532 11.5505 4.04942 11.5579 4.01246L11.5088 4.00268L11.556 4.01931C11.5645 3.99524 11.571 3.97052 11.5755 3.9454L11.5762 3.94551L11.5763 3.93757C11.5769 3.91007 11.575 3.88257 11.5708 3.85539C11.5692 3.82337 11.5647 3.79156 11.5573 3.76034V3.76033V3.7603V3.76027V3.76024V3.76022V3.76019V3.76016V3.76013V3.7601V3.76007V3.76004V3.76001V3.75998V3.75996V3.75993V3.7599V3.75987V3.75984V3.75981V3.75978V3.75975V3.75972V3.7597V3.75967V3.75964V3.75961V3.75958V3.75955V3.75952V3.75949V3.75946V3.75943V3.75941V3.75938V3.75935V3.75932V3.75929V3.75926V3.75923V3.7592V3.75917V3.75915V3.75912V3.75909V3.75906V3.75903V3.759V3.75897V3.75894V3.75891V3.75888V3.75886V3.75883V3.7588V3.75877V3.75874V3.75871V3.75868V3.75865V3.75862V3.75859V3.75857V3.75854V3.75851V3.75848V3.75845V3.75842V3.75839V3.75836V3.75833V3.75831V3.75828V3.75825V3.75822V3.75819V3.75816V3.75813V3.7581V3.75807V3.75805V3.75802V3.75799V3.75796V3.75793V3.7579V3.75787V3.75784V3.75781V3.75779V3.75776V3.75773V3.7577V3.75767V3.75764V3.75761V3.75758V3.75755V3.75753V3.7575V3.75747V3.75744V3.75741V3.75738V3.75735V3.75732V3.75729V3.75727V3.75724V3.75721V3.75718V3.75715V3.75712V3.75709V3.75706V3.75704V3.75701V3.75698V3.75695V3.75692V3.75689V3.75686V3.75683V3.75681V3.75678V3.75675V3.75672V3.75669V3.75666V3.75663V3.7566V3.75658V3.75655V3.75652V3.75649V3.75646V3.75643V3.7564V3.75638V3.75635V3.75632V3.75629V3.75626V3.75623V3.7562V3.75617V3.75615V3.75612V3.75609V3.75606V3.75603V3.756V3.75597V3.75595V3.75592V3.75589V3.75586V3.75583V3.7558V3.75577V3.75575V3.75572V3.75569V3.75566V3.75563V3.7556V3.75558V3.75555V3.75552V3.75549V3.75546V3.75543V3.7554V3.75538V3.75535V3.75532V3.75529V3.75526V3.75523V3.75521V3.75518V3.75515V3.75512V3.75509V3.75506V3.75504V3.75501V3.75498V3.75495V3.75492V3.75489V3.75487V3.75484V3.75481V3.75478V3.75475V3.75473V3.7547V3.75467V3.75464V3.75461V3.75459V3.75456V3.75453V3.7545V3.75447V3.75444V3.75442V3.75439V3.75436V3.75433V3.7543V3.75428V3.75425V3.75422V3.75419V3.75416V3.75414V3.75411V3.75408V3.75405V3.75402V3.754V3.75397V3.75394V3.75391V3.75389V3.75386V3.75383V3.7538V3.75377V3.75375V3.75372V3.75369V3.75366V3.75364V3.75361V3.75358V3.75355V3.75352V3.7535V3.75347V3.75344V3.75341V3.75339V3.75336V3.75333V3.7533V3.75328V3.75325V3.75322V3.75319V3.75317V3.75314V3.75311V3.75308V3.75306V3.75303V3.753V3.75297V3.75295V3.75292V3.75289V3.75286V3.75284V3.75281V3.75278V3.75276V3.75273V3.7527V3.75267V3.75265V3.75262V3.75259V3.75256V3.75254V3.75251V3.75248V3.75246V3.75243V3.7524V3.75237V3.75235V3.75232V3.75229V3.75227V3.75224V3.75221V3.75219V3.75216V3.75213V3.7521V3.75208V3.75205V3.75202V3.752V3.75197V3.75194V3.75192V3.75189V3.75186V3.75184V3.73954L11.5516 3.72865C11.5435 3.71306 11.5344 3.69793 11.5246 3.68334C11.5093 3.64928 11.4899 3.61721 11.4668 3.58788L11.467 3.58772L11.4635 3.58413C11.4456 3.56555 11.4264 3.54832 11.4059 3.53258C11.3874 3.51391 11.3676 3.4966 11.3466 3.4808L11.3468 3.4805L11.3415 3.47745L7.07186 1.01462C7.07185 1.01462 7.07185 1.01461 7.07185 1.01461C6.96097 0.950633 6.82923 0.933317 6.70559 0.966473C6.58194 0.99963 6.47654 1.08055 6.41255 1.19142C6.34857 1.30229 6.33125 1.43405 6.36441 1.55769C6.39756 1.68132 6.47847 1.78672 6.58933 1.85071C6.58934 1.85071 6.58935 1.85072 6.58936 1.85072L9.99976 3.82134M11.5224 4.12554L9.99976 3.82134M8.63469 8.64389L8.63478 8.59389M8.63469 8.64389C8.63478 8.64389 8.63487 8.64389 8.63496 8.64389L8.63478 8.59389M8.63469 8.64389C8.5501 8.64415 8.46696 8.62188 8.39383 8.57937C8.28313 8.51535 8.20237 8.41 8.1693 8.28646C8.13623 8.16292 8.15356 8.03129 8.21748 7.92052L8.2608 7.9455M8.63478 8.59389C8.55897 8.59416 8.48445 8.57422 8.4189 8.53612C8.31965 8.47873 8.24725 8.38428 8.2176 8.27353C8.18795 8.16278 8.20349 8.04479 8.2608 7.9455M8.2608 7.9455L8.21749 7.9205M8.2608 7.9455L10.0417 4.85709C10.0153 4.86945 9.98884 4.88189 9.96247 4.89441M8.21749 7.9205L10.0536 3.85248C4.6036 6.20766 1 11.6113 1 17.5954C1.00296 18.4982 1.08768 19.3988 1.25312 20.2863M8.21749 7.9205L9.96247 4.89441M8.21749 7.9205L1.91503 17.5953M9.96247 4.89441L10.0063 4.81847C5.08848 7.1229 1.86503 12.0985 1.86503 17.5954M9.96247 4.89441C5.09867 7.20396 1.91506 12.1424 1.91503 17.5953M1.86503 17.5954C1.86754 18.4464 1.94718 19.2954 2.10295 20.132C2.11315 20.1878 2.11223 20.2451 2.10025 20.3006C2.08826 20.3561 2.06545 20.4087 2.03311 20.4554C2.00077 20.5021 1.95954 20.5419 1.91179 20.5726C1.86404 20.6033 1.81069 20.6243 1.75481 20.6344C1.72972 20.6389 1.70429 20.6411 1.6788 20.6412C1.57759 20.641 1.47965 20.6054 1.40192 20.5406C1.32419 20.4757 1.27156 20.3858 1.25312 20.2863M1.86503 17.5954H1.91503C1.91503 17.5954 1.91503 17.5953 1.91503 17.5953M1.86503 17.5954L1.91503 17.5952C1.91503 17.5953 1.91503 17.5953 1.91503 17.5953M1.25312 20.2863L1.20397 20.2954C1.20397 20.2954 1.20396 20.2954 1.20396 20.2954C1.03797 19.4049 0.952969 18.5013 0.95 17.5956L0.95 17.5954C0.95 11.6036 4.55065 6.19211 9.99976 3.82134M1.25312 20.2863L9.99976 3.82134" fill="#BFD2E6" stroke="#BFD2E6" stroke-width="0.1"/>
<path d="M34.9863 17.5023L34.9863 17.5023C35.0181 17.558 35.0384 17.6194 35.0462 17.683C35.0539 17.7466 35.0489 17.8111 35.0315 17.8728C35.0141 17.9344 34.9845 17.992 34.9446 18.0421C34.9048 18.092 34.8554 18.1336 34.7995 18.1643C34.7993 18.1644 34.7991 18.1645 34.7989 18.1646L30.5341 20.6269L30.5339 20.627C30.4607 20.669 30.3777 20.6912 30.2933 20.6914L30.293 20.6914C30.2646 20.6913 30.2363 20.6887 30.2084 20.6838L30.2059 20.6833L30.2059 20.6832C30.1636 20.6734 30.123 20.6574 30.0854 20.6357C30.0847 20.6352 30.0839 20.6348 30.0831 20.6343L34.9863 17.5023ZM34.9863 17.5023C34.9549 17.4472 34.9128 17.3989 34.8625 17.3601C34.8122 17.3214 34.7548 17.293 34.6935 17.2766C34.6322 17.2602 34.5683 17.2561 34.5054 17.2645C34.4425 17.273 34.3819 17.2938 34.3272 17.3258C34.3271 17.3258 34.3271 17.3258 34.3271 17.3258L30.9094 19.2977C30.9822 18.7331 31.0216 18.1646 31.0273 17.5953V17.5948C31.0273 11.2652 27.0158 5.58088 21.0444 3.44562C20.9842 3.41831 20.9189 3.4037 20.8527 3.40269C20.7858 3.40168 20.7193 3.4146 20.6577 3.44064C20.596 3.46668 20.5404 3.50526 20.4945 3.55394C20.4485 3.60263 20.4132 3.66034 20.3908 3.7234C20.3683 3.78647 20.3592 3.85352 20.3641 3.92029C20.369 3.98705 20.3877 4.05207 20.4191 4.11121C20.4504 4.17035 20.4938 4.22232 20.5463 4.26381C20.5982 4.30483 20.658 4.33472 20.722 4.35163C26.3078 6.35034 30.0623 11.6709 30.0623 17.5948C30.0623 17.9698 30.0434 18.3498 30.0088 18.7362M34.9863 17.5023L30.0088 18.7362M30.0088 18.7362L28.2568 15.7013L28.2568 15.7013L28.256 15.7001C28.1901 15.5932 28.0851 15.5162 27.9634 15.4855C27.8416 15.4547 27.7127 15.4727 27.6039 15.5355C27.4952 15.5983 27.4152 15.701 27.381 15.8219C27.3468 15.9427 27.361 16.0721 27.4207 16.1826L27.4207 16.1826L27.4214 16.1839L29.8776 20.4374L30.0088 18.7362ZM30.2932 20.6414C30.3689 20.6412 30.4433 20.6213 30.5091 20.5836L30.2172 20.6345C30.2423 20.639 30.2677 20.6413 30.2932 20.6414Z" fill="#BFD2E6" stroke="#BFD2E6" stroke-width="0.1"/>
</svg>
