<svg width="26" height="33" viewBox="0 0 26 33" fill="none" xmlns="http://www.w3.org/2000/svg">
<path d="M21.7604 23.8552H21.7684H21.7685H21.7685H21.7686H21.7687H21.7687H21.7688H21.7689H21.7689H21.769H21.769H21.7691H21.7692H21.7692H21.7693H21.7694H21.7694H21.7695H21.7696H21.7696H21.7697H21.7697H21.7698H21.7699H21.7699H21.77H21.7701H21.7701H21.7702H21.7703H21.7703H21.7704H21.7705H21.7705H21.7706H21.7706H21.7707H21.7708H21.7708H21.7709H21.771H21.771H21.7711H21.7712H21.7712H21.7713H21.7714H21.7714H21.7715H21.7715H21.7716H21.7717H21.7717H21.7718H21.7719H21.7719H21.772H21.7721H21.7721H21.7722H21.7723H21.7723H21.7724H21.7725H21.7725H21.7726H21.7726H21.7727H21.7728H21.7728H21.7729H21.773H21.773H21.7731H21.7732H21.7732H21.7733H21.7734H21.7734H21.7735H21.7735H21.7736H21.7737H21.7737H21.7738H21.7739H21.7739H21.774H21.7741H21.7741H21.7742H21.7743H21.7743H21.7744H21.7745H21.7745H21.7746H21.7746H21.7747H21.7748H21.7748H21.7749H21.775H21.775H21.7751H21.7752H21.7752H21.7753H21.7754H21.7754H21.7755H21.7755H21.7756H21.7757H21.7757H21.7758H21.7759H21.7759H21.776H21.7761H21.7761H21.7762H21.7763H21.7763H21.7764H21.7765H21.7765H21.7766H21.7766H21.7767H21.7768H21.7768H21.7769H21.777H21.777H21.7771H21.7772H21.7772H21.7773H21.7774H21.7774H21.7775H21.7776H21.7776H21.7777H21.7777H21.7778H21.7779H21.7779H21.778H21.7781H21.7781H21.7782H21.7783H21.7783H21.7784H21.7785H21.7785H21.7786H21.7787H21.7787H21.7788H21.7788H21.7789H21.779H21.779H21.7791H21.7792H21.7792H21.7793H21.7794H21.7794H21.7795H21.7796H21.7796H21.7797H21.7798H21.7798H21.7799H21.7799H21.78H21.7801H21.7801H21.7802H21.7803H21.7803H21.7804H21.7805H21.7805H21.7806H21.7807H21.7807H21.7808H21.7809H21.7809H21.781H21.781H21.7811H21.7812H21.7812H21.7813H21.7814H21.7814H21.7815H21.7816H21.7816H21.7817H21.7818H21.7818H21.7819H21.782H21.782H21.7821H21.7821H21.7822H21.7823H21.7823H21.7824H21.7825H21.7825H21.7826H21.7827H21.7827H21.7828H21.7829H21.7829H21.783H21.7831H21.7831H21.7832H21.7833H21.7833H21.7834H21.7834H21.7835H21.7836H21.7836H21.7837H21.7838H21.7838H21.7839H21.784H21.784H21.7841H21.7842H21.7842H21.7843H21.7844H21.7844H21.7845H21.7845H21.7846H21.7847H21.7847H21.7848H21.7849H21.7849H21.785H21.7851H21.7851H21.7852H21.7853H21.7853H21.7854H21.7855H21.7855H21.7856H21.7856H21.7857H21.7858H21.7858H21.7859H21.786H21.786H21.7861H21.7862H21.7862H21.7863H21.7864H21.7864H21.7865H21.7866H21.7866H21.7867H21.7868H21.7868H21.7869H21.7869H21.787H21.7871H21.7871H21.7872H21.7873H21.7873H21.7874H21.7875H21.7875H21.7876H21.7877H21.7877H21.7878H21.7879H21.7879H21.788H21.788H21.7881H21.7882H21.7882H21.7883H21.7884H21.7884H21.7885H21.7886H21.7886H21.7887H21.7888H21.7888H21.7889H21.789H21.789H21.7891H21.7891H21.7892H21.7893H21.7893H21.7894H21.7895H21.7895H21.7896H21.7897H21.7897H21.7898H21.7899H21.7899H21.79H21.7901H21.7901H21.7902H21.7903H21.7903H21.7904H21.7904H21.7905H21.7906H21.7906H21.7907H21.7908H21.7908H21.7909H21.791H21.791H21.7911H21.7912H21.7912H21.7913H21.7914H21.7914H21.7915H21.7915H21.7916H21.7917H21.7917H21.7918H21.7919H21.7919H21.792H21.7921H21.7921H21.7922H21.7923H21.7923H21.7924H21.7924H21.7925H21.7926H21.7926H21.7927H21.7928H21.7928H21.7929H21.793H21.793H21.7931H21.7932H21.7932H21.7933H21.7934H21.7934H21.7935H21.7936H21.7936H21.7937H21.7937H21.7938H21.7939H21.7939H21.794H21.7941H21.7941H21.7942H21.7943H21.7943H21.7944H21.7945H21.7945H21.7946H21.7946H21.7947H21.7948H21.7948H21.7949H21.795H21.795H21.7951H21.7952H21.7952H21.7953H21.7954H21.7954H21.7955H21.7956H21.7956H21.7957H21.7957H21.7958H21.7959H21.7959H21.796H21.7961H21.7961H21.7962H21.7963H21.7963H21.7964H21.7965H21.7965H21.7966H21.7966H21.7967H21.7968H21.7968H21.7969H21.797H21.797H21.7971H21.7972H21.7972H21.7973H21.7974H21.7974H21.7975H21.7976H21.7976H21.7977H21.7977H21.7978H21.7979H21.7979H21.798H21.7981H21.7981H21.7982H21.7983H21.7983H21.7984H21.7985H21.7985H21.7986H21.7986H21.7987H21.7988H21.7988H21.7989H21.799H21.799H21.7991H21.7992H21.7992H21.7993H21.7994H21.7994H21.7995H21.7995H21.7995H21.7996H21.7997H21.7997H21.7998H21.7999H21.7999H21.8H21.8001H21.8001H21.8002H21.8003H21.8003H21.8004H21.8004H21.8005H21.8006H21.8006H21.8007H21.8008H21.8008H21.8009H21.801H21.801H21.8011H21.8012H21.8012H21.8013H21.8013H21.8014H21.8015V23.9302C22.0818 23.9144 22.2707 24.3221 22.0772 24.5257L21.7604 23.8552ZM21.7604 23.8552L21.7527 23.8568C21.6595 23.8768 21.5741 23.9288 21.5134 24.002M21.7604 23.8552L17.1822 28.6605M14.0367 26.8326C13.9627 26.932 13.9442 27.0587 13.9675 27.1726C13.9904 27.2851 14.0557 27.3931 14.1605 27.4559L16.9807 29.571L16.9819 29.5719C17.1498 29.6929 17.4015 29.669 17.5436 29.5184L17.5439 29.5179L22.1316 24.5774C22.1317 24.5773 22.1318 24.5772 22.1319 24.5771L14.0969 26.8775M14.0367 26.8326L14.0969 26.8775M14.0367 26.8326C14.0367 26.8326 14.0367 26.8326 14.0367 26.8326L14.0969 26.8775M14.0367 26.8326C14.1108 26.7333 14.2269 26.6794 14.3427 26.6691C14.4571 26.6589 14.5794 26.6907 14.6695 26.7732M14.0969 26.8775C14.2152 26.7186 14.4768 26.6954 14.6213 26.8309M14.6695 26.7732L14.6664 26.7709L14.6213 26.8309M14.6695 26.7732L17.1822 28.6605M14.6695 26.7732C14.6705 26.7742 14.6716 26.7752 14.6726 26.7762L14.6213 26.8309M14.6213 26.8309L17.1822 28.6605M17.1822 28.6605L17.1362 28.71L17.1912 28.761L17.2362 28.7011L17.1822 28.6605ZM17.1822 28.6605L21.5134 24.002M21.5134 24.002C21.5129 24.0027 21.5124 24.0033 21.5119 24.0039L21.5699 24.0515L21.5149 24.0004L21.5134 24.002ZM1.35294 0.925H1.35293C1.12672 0.925043 0.925043 1.12672 0.925 1.35293V1.35294L0.924983 31.7059L0.925017 31.7075C0.9292 31.9028 1.07985 32.1338 1.35294 32.1338H24.6471C24.8733 32.1338 25.075 31.9321 25.075 31.7059V6.29412C25.075 6.1845 25.03 6.07721 24.9547 5.99932L24.9538 5.99844L20.014 1.05872C20.0138 1.05846 20.0135 1.0582 20.0133 1.05794C19.9344 0.975107 19.8214 0.925 19.7059 0.925H1.35294ZM19.7059 6.72206H24.2191V31.2779H1.78088V1.78088H19.2779L19.2779 6.29412L19.278 6.29568C19.2822 6.49735 19.43 6.71777 19.7047 6.72206H19.7059ZM20.1338 2.3943L23.6057 5.86618H20.1338V2.3943ZM5.58824 8.33676C5.35188 8.33676 5.16029 8.5284 5.16029 8.76471C5.16029 9.00106 5.35188 9.19265 5.58824 9.19265H20.4118C20.6481 9.19265 20.8397 9.00106 20.8397 8.76471C20.8397 8.5284 20.6481 8.33676 20.4118 8.33676H5.58824ZM5.58824 14.6897C5.35188 14.6897 5.16029 14.8813 5.16029 15.1176C5.16029 15.354 5.35188 15.5456 5.58824 15.5456H20.4118C20.6481 15.5456 20.8397 15.354 20.8397 15.1176C20.8397 14.8813 20.6481 14.6897 20.4118 14.6897H5.58824ZM5.58824 21.0426C5.35188 21.0426 5.16029 21.2343 5.16029 21.4706C5.16029 21.7069 5.35188 21.8985 5.58824 21.8985H20.4118C20.6481 21.8985 20.8397 21.7069 20.8397 21.4706C20.8397 21.2343 20.6481 21.0426 20.4118 21.0426H5.58824ZM5.58824 27.3956C5.35188 27.3956 5.16029 27.5872 5.16029 27.8235C5.16029 28.0599 5.35188 28.2515 5.58824 28.2515H11.5882C11.8246 28.2515 12.0162 28.0599 12.0162 27.8235C12.0162 27.5872 11.8246 27.3956 11.5882 27.3956H5.58824Z" fill="white" fill-opacity="0.7" stroke="#BFD2E6" stroke-width="0.15"/>
</svg>
