<svg width="12" height="16" viewBox="0 0 12 16" fill="none" xmlns="http://www.w3.org/2000/svg">
<path d="M5.99999 0C5.7857 0 5.61038 0.181169 5.61038 0.402597V10.4675L1.27012 6.54221C1.10648 6.39727 0.861028 6.41337 0.720768 6.57844C0.580509 6.74753 0.596093 7.00117 0.755833 7.1461L5.74285 11.6552C5.80908 11.7156 5.89869 11.7558 5.9922 11.7558C5.9922 11.7558 5.9922 11.7558 5.99609 11.7558H5.99999C6.09739 11.7558 6.18311 11.7156 6.24934 11.6552L11.2364 7.1461C11.4 7.00117 11.4156 6.7435 11.2714 6.57844C11.1312 6.40935 10.8818 6.39324 10.7221 6.54221L6.38181 10.4675V0.402597C6.38181 0.181169 6.20648 0 5.9922 0H5.99999Z" fill="black"/>
<path d="M0 15.218C0 15.4395 0.175325 15.6206 0.38961 15.6206H11.6104C11.8247 15.6206 12 15.4395 12 15.218C12 14.9966 11.8247 14.8154 11.6104 14.8154H0.38961C0.175325 14.8154 0 14.9966 0 15.218Z" fill="black"/>
</svg>
