<svg width="30" height="19" viewBox="0 0 30 19" fill="none" xmlns="http://www.w3.org/2000/svg">
<path d="M14.8916 18.8732C9.93285 18.8732 5.13414 16.2637 0.626882 11.1161L0.626476 11.1153C-0.200328 10.1692 -0.210032 8.68702 0.605047 7.74009C2.59586 5.42668 7.98932 0.0428951 15.0501 0.0130036C15.0704 0.0130036 22.2405 -0.664981 29.3755 7.77007C30.1875 8.72991 30.2211 10.1414 29.3974 11.1452C27.5725 13.3692 21.8865 18.9405 14.8916 18.8732ZM1.87295 10.0244C6.0515 14.7977 10.4317 17.228 14.8924 17.2171C21.2158 17.2016 26.4617 12.0841 28.1424 10.0649C28.412 9.741 28.4117 9.18267 28.1303 8.86164C23.9513 4.08844 19.5577 1.66383 15.0574 1.66904C8.67782 1.6765 3.70282 6.67923 1.86002 8.82041C1.58509 9.13986 1.59115 9.70267 1.87336 10.0253L1.87295 10.0244ZM15.0016 13.7004C12.6538 13.7004 10.7435 11.7904 10.7435 9.44308C10.7435 7.0949 12.6538 5.1849 15.0016 5.1849C17.349 5.1849 19.2589 7.0949 19.2589 9.44308C19.2589 11.7904 17.349 13.7004 15.0016 13.7004ZM15.0016 6.84094C13.5667 6.84094 12.3995 8.00862 12.3995 9.44308C12.3995 10.8775 13.5667 12.0444 15.0016 12.0444C16.4361 12.0444 17.6029 10.8775 17.6029 9.44308C17.6029 8.00862 16.4361 6.84094 15.0016 6.84094Z" fill="#5C5C5C"/>
</svg>
