<svg width="181" height="182" viewBox="0 0 181 182" fill="none" xmlns="http://www.w3.org/2000/svg">
<path fill-rule="evenodd" clip-rule="evenodd" d="M157.877 30.1895C152.228 23.8783 142.556 23.3622 136.274 29.0367C129.991 34.7112 129.477 44.4276 135.126 50.7387C144.637 61.3645 150.405 75.3832 150.405 90.7917C150.405 113.582 137.742 133.401 119.099 143.536C124.638 146.101 129.055 151.013 130.795 157.385C132.264 162.759 131.567 168.218 129.237 172.823C159.831 158.31 181 127.034 181 90.7917C181 67.5055 172.241 46.2379 157.877 30.1895Z" fill="#1A1F2E"/>
<path d="M55.796 41.5931C65.4534 34.8261 77.1813 30.8596 89.8773 30.8596C102.573 30.8596 114.301 34.8261 123.959 41.5931C124.187 41.7534 124.419 41.9065 124.653 42.0526C124.186 35.6442 126.568 29.0946 131.693 24.4659C135.343 21.1695 139.809 19.3653 144.352 19.0137C143.523 18.0387 142.558 17.1528 141.462 16.385C126.837 6.13703 109.033 0.125 89.8773 0.125C70.7216 0.125 52.9179 6.13703 38.2926 16.385C31.3631 21.2405 29.664 30.8196 34.4974 37.7806C39.3309 44.7416 48.8665 46.4485 55.796 41.5931Z" fill="#95A4FC"/>
<path fill-rule="evenodd" clip-rule="evenodd" d="M25.6596 27.7979C24.6866 28.4709 23.7763 29.2687 22.9517 30.19C16.0595 37.8904 10.4547 46.7932 6.48875 56.5574C3.297 64.4156 7.05099 73.3851 14.8735 76.5914C22.696 79.7977 31.6249 76.0266 34.8166 68.1684C37.4306 61.7327 41.1332 55.8447 45.7028 50.7393C45.7809 50.652 45.8578 50.5642 45.9335 50.4756C39.5641 50.1389 33.4103 46.9598 29.4787 41.2976C26.6279 37.1921 25.4004 32.436 25.6596 27.7979Z" fill="#B1E3FF"/>
<path fill-rule="evenodd" clip-rule="evenodd" d="M2.73391 71.3711C4.92643 76.1503 8.85885 80.1373 14.0917 82.2821C19.8477 84.6414 26.0316 84.3022 31.2522 81.8521C30.8202 84.7606 30.5951 87.745 30.5951 90.7916C30.5951 110.179 39.759 127.416 53.9728 138.371C54.7288 138.732 55.4653 139.16 56.1746 139.657C65.832 146.424 77.5599 150.39 90.2559 150.39C95.7603 150.39 101.067 149.645 106.094 148.26C114.241 146.013 122.658 150.827 124.895 159.011C127.131 167.196 122.339 175.652 114.191 177.898C106.551 180.005 98.5217 181.125 90.2559 181.125C84.6706 181.125 79.2003 180.614 73.8902 179.635C74.0031 179.77 74.1177 179.903 74.2338 180.034C32.03 172.439 0 135.373 0 90.7916C0 85.7676 0.40825 80.8281 1.19626 76.0076C1.46817 74.3442 1.99647 72.7874 2.73391 71.3711Z" fill="#BAEDBD"/>
</svg>
