<svg width="22" height="22" viewBox="0 0 22 22" fill="none" xmlns="http://www.w3.org/2000/svg">
<path d="M11 3.56257C10.0274 3.56257 9.21684 2.77603 9.21684 1.78128C9.21684 0.78654 10.0042 0 11 0C11.9958 0 12.7832 0.78654 12.7832 1.78128C12.7832 2.77603 11.9726 3.56257 11 3.56257ZM7.92 2.15142C7.43368 1.29548 6.34526 0.994742 5.51158 1.50368C4.67789 2.01262 4.37684 3.07676 4.86316 3.9327C5.34947 4.78864 6.43789 5.06625 7.29474 4.58044C8.15158 4.09464 8.40632 2.98423 7.92 2.15142ZM3.89053 4.85804C3.03368 4.37224 1.94526 4.64984 1.45895 5.50578C0.972632 6.36172 1.27368 7.42587 2.13053 7.93481C2.98737 8.42061 4.07579 8.14301 4.56211 7.28707C5.04842 6.43113 4.74737 5.36698 3.89053 4.85804ZM1.78316 9.20715C0.810526 9.20715 0 9.99369 0 10.9884C0 11.9832 0.787368 12.7697 1.78316 12.7697C2.77895 12.7697 3.56632 11.9832 3.56632 10.9884C3.56632 9.99369 2.75579 9.20715 1.78316 9.20715ZM2.13053 14.0652C1.27368 14.551 0.972631 15.6383 1.48211 16.4942C1.96842 17.3502 3.05684 17.6278 3.91368 17.142C4.77053 16.6562 5.04842 15.5689 4.56211 14.7129C4.05263 13.8801 2.96421 13.6025 2.13053 14.0652ZM4.84 18.1136C4.35368 18.9695 4.63158 20.0568 5.48842 20.5426C6.34526 21.0284 7.43368 20.7508 7.92 19.8948C8.40632 19.0389 8.12842 17.9516 7.27158 17.4658C6.41474 16.98 5.34947 17.2576 4.84 18.1136ZM9.21684 20.2187C9.21684 21.1903 10.0042 22 11 22C11.9958 22 12.7832 21.2135 12.7832 20.2187C12.7832 19.2471 11.9958 18.4374 11 18.4374C10.0042 18.4374 9.21684 19.2471 9.21684 20.2187ZM15.6084 17.5584C15.3537 17.5584 15.1221 17.6278 14.8905 17.7434C14.5663 17.9285 14.3347 18.2292 14.2189 18.5994C14.1263 18.9695 14.1726 19.3396 14.3579 19.6866C14.6126 20.1262 15.0758 20.4038 15.5853 20.4038C15.84 20.4038 16.0716 20.3344 16.3032 20.2187C16.9747 19.8254 17.2063 18.9464 16.8126 18.2755C16.5811 17.836 16.1179 17.5584 15.6084 17.5584ZM15.6084 17.2114C16.2337 17.2114 16.8126 17.5352 17.1368 18.0904C17.6232 18.9464 17.3453 20.0336 16.4884 20.5195C16.2105 20.6814 15.9095 20.7508 15.6084 20.7508C14.9832 20.7508 14.4042 20.4269 14.08 19.8717C13.5937 19.0158 13.8716 17.9285 14.7284 17.4427C15.0063 17.3039 15.3074 17.2114 15.6084 17.2114ZM18.9895 14.1809C18.48 14.1809 18.0168 14.4585 17.7621 14.898C17.5768 15.2219 17.5305 15.6151 17.6232 15.9853C17.7158 16.3554 17.9474 16.6562 18.2947 16.8412C18.5032 16.9569 18.7579 17.0263 19.0126 17.0263C19.5221 17.0263 19.9853 16.7487 20.24 16.3091C20.4253 15.9853 20.4716 15.592 20.3789 15.2219C20.2863 14.8517 20.0547 14.551 19.7074 14.3659C19.4758 14.2734 19.2442 14.1809 18.9895 14.1809ZM18.9895 13.8339C19.2905 13.8339 19.5916 13.9033 19.8695 14.0652C20.7263 14.551 21.0042 15.6383 20.5179 16.4942C20.1937 17.0726 19.5916 17.3733 18.9895 17.3733C18.6884 17.3733 18.3874 17.3039 18.1095 17.142C17.2526 16.6562 16.9747 15.5689 17.4611 14.7129C17.7853 14.1346 18.3874 13.8339 18.9895 13.8339ZM20.2168 9.60042C19.4295 9.60042 18.8042 10.2482 18.8042 11.0116C18.8042 11.775 19.4526 12.4227 20.2168 12.4227C20.9811 12.4227 21.6526 11.7981 21.6526 10.9884C21.6526 10.1788 21.0042 9.60042 20.2168 9.60042ZM20.2168 9.20715C21.1895 9.20715 22 9.99369 22 10.9884C22 11.9832 21.2126 12.7697 20.2168 12.7697C19.2442 12.7697 18.4337 11.9832 18.4337 10.9884C18.4337 9.99369 19.2442 9.20715 20.2168 9.20715ZM18.9895 4.97371C18.7347 4.97371 18.5032 5.04311 18.2716 5.15878C17.9474 5.34385 17.7158 5.64458 17.6 6.01472C17.5074 6.38486 17.5537 6.755 17.7389 7.102C17.9937 7.54154 18.4568 7.81914 18.9663 7.81914C19.2211 7.81914 19.4526 7.74974 19.6842 7.63407C20.0084 7.449 20.24 7.14826 20.3558 6.77813C20.4484 6.40799 20.4021 6.03786 20.2168 5.69085C19.9621 5.25131 19.4989 4.97371 18.9895 4.97371ZM18.9895 4.62671C19.6147 4.62671 20.1937 4.95058 20.5179 5.50578C21.0042 6.36172 20.7263 7.449 19.8695 7.93481C19.5916 8.09674 19.2905 8.16614 18.9895 8.16614C18.3642 8.16614 17.7853 7.84227 17.4611 7.28707C16.9747 6.43113 17.2526 5.34385 18.1095 4.85804C18.3874 4.69611 18.6884 4.62671 18.9895 4.62671ZM15.6084 1.59621C15.0989 1.59621 14.6358 1.87382 14.3811 2.31335C14.1958 2.63722 14.1495 3.03049 14.2421 3.40063C14.3347 3.77077 14.5663 4.0715 14.9137 4.25657C15.1221 4.37224 15.3768 4.44164 15.6316 4.44164C16.1411 4.44164 16.6042 4.16404 16.8589 3.7245C17.2526 3.05363 17.0211 2.17455 16.3495 1.78128C16.1179 1.66562 15.8632 1.59621 15.6084 1.59621ZM15.6084 1.24921C15.9095 1.24921 16.2105 1.31861 16.4884 1.48055C17.3453 1.96635 17.6232 3.05363 17.1368 3.90957C16.8126 4.48791 16.2105 4.78864 15.6084 4.78864C15.3074 4.78864 15.0063 4.71924 14.7284 4.55731C13.8716 4.0715 13.5937 2.98423 14.08 2.12829C14.4042 1.57308 15.0063 1.24921 15.6084 1.24921Z" fill="#505050"/>
</svg>
