<svg width="27" height="33" viewBox="0 0 27 33" fill="none" xmlns="http://www.w3.org/2000/svg">
<path d="M23.2872 22.4953C22.9535 22.2888 22.8503 21.8509 23.0568 21.5172C23.2632 21.1835 23.7011 21.0803 24.0348 21.2867C24.1568 21.3622 24.2577 21.4079 24.3333 21.4273C25.8917 21.8276 27 23.2373 27 24.8684C27 26.8305 25.4094 28.4211 23.4474 28.4211H3.55263C1.59057 28.4211 0 26.8305 0 24.8684C0 23.2348 1.11155 21.8236 2.67318 21.4257C2.74805 21.4066 2.84951 21.3609 2.97302 21.2852C3.30759 21.0801 3.74505 21.1851 3.95011 21.5197C4.15517 21.8543 4.05018 22.2917 3.71561 22.4968C3.47839 22.6422 3.2494 22.7453 3.0241 22.8027C2.08835 23.0412 1.42105 23.8884 1.42105 24.8684C1.42105 26.0457 2.37539 27 3.55263 27H23.4474C24.6246 27 25.5789 26.0457 25.5789 24.8684C25.5789 23.8898 24.9136 23.0436 23.9798 22.8037C23.7531 22.7455 23.5237 22.6415 23.2872 22.4953ZM24.3652 21.8838C24.3652 22.2762 24.0471 22.5943 23.6547 22.5943C23.2623 22.5943 22.9442 22.2762 22.9442 21.8838V12.9344C22.9442 8.67505 19.7797 5.01226 15.4297 4.14913C15.0448 4.07275 14.7947 3.69881 14.8711 3.3139C14.9474 2.92899 15.3214 2.67887 15.7063 2.75525C20.7073 3.74757 24.3652 7.98145 24.3652 12.9344V21.8838ZM11.2669 2.7624C11.6514 2.68393 12.0267 2.932 12.1051 3.31649C12.1836 3.70097 11.9355 4.07628 11.551 4.15475C11.4873 4.16787 11.4873 4.16787 11.4221 4.18168C7.14085 5.09451 4.05583 8.72197 4.05583 12.9344V21.8838C4.05583 22.2762 3.73772 22.5943 3.34531 22.5943C2.9529 22.5943 2.63478 22.2762 2.63478 21.8838V12.9344C2.63478 8.03644 6.20231 3.84163 11.1258 2.79186C11.1965 2.77689 11.1965 2.77689 11.2669 2.7624ZM8.52632 27.7105C8.52632 27.3181 8.84443 27 9.23684 27C9.62925 27 9.94737 27.3181 9.94737 27.7105C9.94737 29.6726 11.5379 31.2632 13.5 31.2632C15.4621 31.2632 17.0526 29.6726 17.0526 27.7105C17.0526 27.3181 17.3707 27 17.7632 27C18.1556 27 18.4737 27.3181 18.4737 27.7105C18.4737 30.4574 16.2469 32.6842 13.5 32.6842C10.7531 32.6842 8.52632 30.4574 8.52632 27.7105ZM12.1225 3.45199C12.1225 3.8444 11.8044 4.16252 11.412 4.16252C11.0196 4.16252 10.7014 3.8444 10.7014 3.45199V2.89967C10.7014 1.3037 11.9361 0 13.4906 0C15.0385 0 16.2798 1.30896 16.2798 2.89967V3.45199C16.2798 3.8444 15.9617 4.16252 15.5693 4.16252C15.1769 4.16252 14.8588 3.8444 14.8588 3.45199V2.89967C14.8588 2.07743 14.2363 1.42105 13.4906 1.42105C12.7387 1.42105 12.1225 2.07174 12.1225 2.89967V3.45199Z" fill="#A7A7A7"/>
</svg>
